<?xml version="1.0" encoding="utf-8"?>
<!-- Generator: Adobe Illustrator 24.0.2, SVG Export Plug-In . SVG Version: 6.00 Build 0)  -->
<svg version="1.1" id="Layer_1" xmlns="http://www.w3.org/2000/svg" xmlns:xlink="http://www.w3.org/1999/xlink" x="0px" y="0px"
	 viewBox="0 0 489.4 290.3" style="enable-background:new 0 0 489.4 290.3;" xml:space="preserve">
<style type="text/css">
	.st0{fill:#0066FF;}
	.st1{fill:#003366;}
	.st2{fill:#A6A8AB;}
</style>
<rect x="-485.1" y="-357.8" width="1841.1" height="5050.3"/>
<g>
	<path class="st0" d="M46.1,94.9c1.3,0.7,2.2,1.6,2.8,2.9h0c0.6,1.3,2.4,1.7,3.4,0.6l1.5-1.5c2.8-2.8,2.7-7.4-0.1-10.2
		c0,0,0,0-0.1-0.1c-5.8-5.9-11.3-12.1-16.9-18.1c-2.4-2.6-5-5.1-7.1-8c-1.2-1.7-2.4-4.1-2.2-6.1c0.6-5.3,6.7-7.1,10.9-3.6
		c5.5,4.6,11,9.3,16.5,14c4.3,3.7,6.6,3.6,10.6-0.3c8.6-8.4,34.7-34.7,49.8-49.8c-13.7-4.4-27.3-8.9-41-13.3c-3.1-1-6.1-1.5-9.2-1.5
		C62,0,59,0.5,55.9,1.5C39,7,22.1,12.5,5.2,18c-2.9,0.9-4.7,3-4.9,6C-1,44.3,1.5,64.1,10,82.9c4.3,9.6,9.9,18,16.5,25.2
		c4.6-4.6,8.4-8.3,10.5-10.3c0.7-0.7,1.5-1.3,2.3-1.8C41.3,94.6,43.6,93.7,46.1,94.9z"/>
	<path class="st2" d="M129.8,24c-0.1-1.3-0.4-2.3-1-3.3c-14.7,15.7-44.3,46.7-53.9,57c-2.6,2.9-5.3,5.7-7.9,8.6
		c-0.6,0.6-1.1,1.1-1.7,1.6c0,0-17,17.2-17.2,17.4c-0.4,0.5-0.8,1.1-1.3,1.6c-2.4,2.6-5.9,6.4-10.2,10.9c3.6,2.9,7.3,5.6,11.3,8.1
		c14.5-14.4,43.2-43.5,52.4-52.3c1-1,2-1.9,3.2-2.6c2.1-1.3,4.4-2.3,6.8-1c1.3,0.7,2.2,1.6,2.8,2.9c1.1,2.4,0.7,5.3-0.9,7.4
		c-0.4,0.5-0.8,1.1-1.3,1.6c-8.5,9.2-32.9,34.8-48.6,51.4c0.9,0.2,1.8,0.3,2.7,0.4c1.8,0,3.6-0.5,5.4-1.3
		c22.5-10.5,39.4-26.6,49.7-49.3C128.6,64.1,131.1,44.3,129.8,24z"/>
	<path class="st2" d="M158.9,39.1v-24h93.8v24h-34v100.7h-25.9V39.1H158.9z"/>
	<path class="st2" d="M338.7,99.9h-59.5v4c0,11.5,5.6,16.1,18.8,16.1c14.8,0,19-3.5,19-10.9h23.8c0,20.7-11.1,33-42.8,33
		c-29.9,0-43.9-12.7-43.9-42V84.7c0-28.8,15-43.2,44.7-43.2c28,0,42,13.6,42,41.1C340.8,89.3,340,95.1,338.7,99.9z M279.2,79.5H317
		v-2.1c0-9.4-6.3-14.2-19-14.2c-12.5,0-18.8,4.8-18.8,14.2V79.5z"/>
	<path class="st2" d="M359.8,139.8V5.5h24.9v134.3H359.8z"/>
	<path class="st2" d="M51.8,247.7c0,14.5,5.7,18.8,23.4,18.8c14.9,0,20.2-3.1,20.2-12.6c0-2.9-1-5.3-3.3-7.1
		c-2.2-1.8-7.3-5.1-15.1-9.6L51,221.9c-15.3-9-22.6-19-22.6-34.2c0-22.8,14.3-34.2,47.5-34.2c33.2,0,45.5,12.6,45.5,41.2H95.2
		c0-12.4-5.7-17.3-19.4-17.3c-13.9,0-19.4,2.9-19.4,11.2c0,4.7,2.6,6.3,13.2,12.6L96.8,217c12.2,7.3,18.5,12,23.2,21
		c2.2,4.7,3.5,10,3.5,15.9c0,23.8-14.3,36.5-48.3,36.5c-33,0-49.5-14.3-49.5-42.6H51.8z"/>
	<path class="st2" d="M167.4,186v63.2c0,11.4,3.9,16.1,20,16.1c15.7,0,19.6-4.7,19.6-16.1V186h26.5v63.2c0,27.7-14.3,41.2-46.1,41.2
		c-30.8,0-46.5-14.3-46.5-41.2V186H167.4z"/>
	<path class="st2" d="M280.1,287.9h-26.7v-67.3c0-24.3,14.7-37.1,42.4-37.1c4.3,0,8.6,0.6,12.6,1.6v25.1c-3.9-1-8-1.6-12.6-1.6
		c-12.4,0-15.7,4.1-15.7,14.1V287.9z"/>
	<path class="st2" d="M410.7,245.5h-63.2v4.3c0,12.2,5.9,17.1,20,17.1c15.7,0,20.2-3.7,20.2-11.6H413c0,22-11.8,35.1-45.5,35.1
		c-31.8,0-46.7-13.5-46.7-44.6v-16.3c0-30.6,15.9-45.9,47.5-45.9c29.8,0,44.6,14.5,44.6,43.6C413,234.3,412.1,240.4,410.7,245.5z
		 M347.5,223.9h40.2v-2.2c0-10-6.7-15.1-20.2-15.1c-13.2,0-20,5.1-20,15.1V223.9z"/>
	<path class="st0" d="M421,43.9H452l-32,38.9c-2.5,2.7-3.6,4.8-3.6,6.3c0,1.3,1.2,3.5,3.5,6.1l69.6,88.5h-31.1l-59.6-76.6
		c-5-6.1-7.5-12.5-7.5-18.8c0-6.3,1.9-10.2,7.5-17.1L421,43.9z"/>
</g>
</svg>
