<?xml version="1.0" encoding="utf-8"?>
<!-- Generator: Adobe Illustrator 24.0.2, SVG Export Plug-In . SVG Version: 6.00 Build 0)  -->
<svg version="1.1" id="Layer_1" xmlns="http://www.w3.org/2000/svg" xmlns:xlink="http://www.w3.org/1999/xlink" x="0px" y="0px"
	 viewBox="0 0 688.6 301" style="enable-background:new 0 0 688.6 301;" xml:space="preserve">
<style type="text/css">
	.st0{fill:#0066FF;}
	.st1{fill:#003366;}
	.st2{fill:#A6A8AB;}
</style>
<g>
	<path class="st0" d="M604.5,94.9c1.3,0.7,2.2,1.6,2.8,2.9l0,0c0.6,1.3,2.4,1.7,3.4,0.6l1.5-1.5c2.8-2.8,2.7-7.4-0.1-10.2
		c0,0,0,0-0.1-0.1c-5.8-5.9-11.3-12.1-16.9-18.1c-2.4-2.6-5-5.1-7.1-8c-1.2-1.7-2.4-4.1-2.2-6.1c0.6-5.3,6.7-7.1,10.9-3.6
		c5.5,4.6,11,9.3,16.5,14c4.3,3.7,6.6,3.6,10.6-0.3c8.6-8.4,34.7-34.7,49.8-49.8c-13.7-4.4-27.3-8.9-41-13.3c-3.1-1-6.1-1.5-9.2-1.5
		c-3.1,0-6.1,0.5-9.2,1.5c-16.9,5.4-33.8,11-50.7,16.4c-2.9,0.9-4.7,3-4.9,6c-1.3,20.4,1.2,40.2,9.7,58.9c4.3,9.6,9.9,18,16.5,25.2
		c4.6-4.6,8.4-8.3,10.5-10.3c0.7-0.7,1.5-1.3,2.3-1.8C599.8,94.6,602.1,93.7,604.5,94.9z"/>
	<path class="st1" d="M688.3,24c-0.1-1.3-0.4-2.3-1-3.3c-14.7,15.7-44.3,46.7-53.9,57c-2.6,2.9-5.3,5.7-7.9,8.6
		c-0.6,0.6-1.1,1.1-1.7,1.6c0,0-17,17.2-17.2,17.4c-0.4,0.5-0.8,1.1-1.3,1.6c-2.4,2.6-5.9,6.4-10.2,10.9c3.6,2.9,7.3,5.6,11.3,8.1
		c14.5-14.4,43.2-43.5,52.4-52.3c1-1,2-1.9,3.2-2.6c2.1-1.3,4.4-2.3,6.8-1c1.3,0.7,2.2,1.6,2.8,2.9c1.1,2.4,0.7,5.3-0.9,7.4
		c-0.4,0.5-0.8,1.1-1.3,1.6c-8.5,9.2-32.9,34.8-48.6,51.4c0.9,0.2,1.8,0.3,2.7,0.4c1.8,0,3.6-0.5,5.4-1.3
		c22.5-10.5,39.4-26.6,49.7-49.3C687.1,64.1,689.6,44.3,688.3,24z"/>
	<path class="st1" d="M0,156.3v-24h93.8v24h-34V257H34V156.3H0z"/>
	<path class="st1" d="M179.8,217.1h-59.5v4c0,11.5,5.6,16.1,18.8,16.1c14.8,0,19-3.5,19-10.9h23.8c0,20.7-11.1,33-42.8,33
		c-29.9,0-43.9-12.7-43.9-42V202c0-28.8,15-43.2,44.7-43.2c28,0,42,13.6,42,41.1C181.9,206.6,181.1,212.3,179.8,217.1z M120.3,196.8
		h37.8v-2.1c0-9.4-6.3-14.2-19-14.2c-12.5,0-18.8,4.8-18.8,14.2V196.8z"/>
	<path class="st1" d="M200.9,257V122.7h24.9V257H200.9z"/>
	<path class="st1" d="M328.5,219.2c0,13.6,5.4,17.7,22.1,17.7c14,0,19-2.9,19-11.9c0-2.7-1-5-3.1-6.7c-2.1-1.7-6.9-4.8-14.2-9
		l-24.6-14.4c-14.4-8.4-21.3-17.8-21.3-32.2c0-21.5,13.4-32.2,44.7-32.2c31.3,0,42.8,11.9,42.8,38.8h-24.6
		c0-11.7-5.4-16.3-18.2-16.3c-13,0-18.2,2.7-18.2,10.5c0,4.4,2.5,5.9,12.5,11.9l25.5,15c11.5,6.9,17.5,11.3,21.9,19.8
		c2.1,4.4,3.3,9.4,3.3,15c0,22.4-13.4,34.3-45.5,34.3c-31.1,0-46.6-13.4-46.6-40.1H328.5z"/>
	<path class="st1" d="M437.2,161.1v59.5c0,10.7,3.6,15.2,18.8,15.2c14.8,0,18.4-4.4,18.4-15.2v-59.5h24.9v59.5
		c0,26.1-13.4,38.8-43.4,38.8c-29,0-43.7-13.4-43.7-38.8v-59.5H437.2z"/>
	<path class="st1" d="M543.3,257h-25.1v-63.3c0-22.8,13.8-34.9,39.9-34.9c4,0,8.1,0.6,11.9,1.5v23.6c-3.6-1-7.5-1.5-11.9-1.5
		c-11.7,0-14.8,3.8-14.8,13.2V257z"/>
	<path class="st1" d="M666.3,217.1h-59.5v4c0,11.5,5.6,16.1,18.8,16.1c14.8,0,19-3.5,19-10.9h23.8c0,20.7-11.1,33-42.8,33
		c-29.9,0-43.9-12.7-43.9-42V202c0-28.8,15-43.2,44.7-43.2c28,0,42,13.6,42,41.1C668.4,206.6,667.6,212.3,666.3,217.1z M606.8,196.8
		h37.8v-2.1c0-9.4-6.3-14.2-19-14.2c-12.5,0-18.8,4.8-18.8,14.2V196.8z"/>
	<path class="st0" d="M262.1,161.1h31.1l-32,38.9c-2.5,2.7-3.6,4.8-3.6,6.3c0,1.3,1.2,3.5,3.5,6.1l69.6,88.5h-31.1l-59.6-76.6
		c-5-6.1-7.5-12.5-7.5-18.8c0-6.3,1.9-10.2,7.5-17.1L262.1,161.1z"/>
</g>
</svg>
