<?xml version="1.0" encoding="utf-8"?>
<!-- Generator: Adobe Illustrator 24.0.2, SVG Export Plug-In . SVG Version: 6.00 Build 0)  -->
<svg version="1.1" id="Layer_1" xmlns="http://www.w3.org/2000/svg" xmlns:xlink="http://www.w3.org/1999/xlink" x="0px" y="0px"
	 viewBox="0 0 512.2 343.7" style="enable-background:new 0 0 512.2 343.7;" xml:space="preserve">
<style type="text/css">
	.st0{fill:#0066FF;}
	.st1{fill:#003366;}
	.st2{fill:#A6A8AB;}
</style>
<g>
	<path class="st0" d="M404.6,133.4c1.7,0.9,2.8,2.1,3.6,3.7v0c0.8,1.7,3.1,2.1,4.4,0.8l1.9-1.9c3.6-3.6,3.5-9.5-0.1-13.1
		c0,0-0.1-0.1-0.1-0.1c-7.4-7.6-14.5-15.4-21.7-23.2c-3.1-3.3-6.4-6.5-9.1-10.2c-1.6-2.2-3.1-5.3-2.9-7.7c0.7-6.7,8.5-9.1,14-4.6
		C401.8,83,408.8,89,415.8,95c5.5,4.7,8.4,4.6,13.6-0.4c11-10.7,44.4-44.4,63.7-63.7c-17.5-5.7-35-11.4-52.5-17
		c-3.9-1.3-7.8-1.9-11.7-1.9c-3.9,0-7.8,0.7-11.7,1.9c-21.7,7-43.3,14-64.9,21.1c-3.7,1.2-6,3.8-6.2,7.7
		c-1.7,26.1,1.5,51.4,12.4,75.4c5.5,12.2,12.6,23,21.1,32.3c5.9-5.9,10.7-10.6,13.4-13.2c0.9-0.9,1.9-1.6,2.9-2.3
		C398.5,133.1,401.5,131.8,404.6,133.4z"/>
	<path class="st1" d="M511.8,42.6c-0.1-1.6-0.6-3-1.3-4.2c-18.9,20.1-56.7,59.7-69,73c-3.4,3.7-6.8,7.3-10.2,10.9
		c-0.7,0.8-1.4,1.4-2.1,2c0,0-21.8,22-22,22.3c-0.5,0.7-1,1.3-1.6,2c-3,3.3-7.6,8.2-13.1,13.9c4.6,3.7,9.4,7.2,14.5,10.3
		c18.6-18.5,55.3-55.6,67-66.9c1.3-1.2,2.6-2.5,4.1-3.4c2.7-1.7,5.6-2.9,8.7-1.3c1.7,0.9,2.8,2.1,3.6,3.7c1.4,3.1,0.9,6.8-1.1,9.5
		c-0.5,0.7-1,1.3-1.6,2c-10.9,11.8-42.1,44.5-62.1,65.7c1.2,0.3,2.3,0.4,3.5,0.5c2.3-0.1,4.6-0.6,6.9-1.7c28.7-13.4,50.4-34,63.6-63
		C510.3,94,513.5,68.7,511.8,42.6z"/>
	<path class="st1" d="M0,37.1V10.6h103.7v26.5H66.1v111.3H37.5V37.1H0z"/>
	<path class="st1" d="M198.6,104.3h-65.7v4.5c0,12.7,6.1,17.8,20.8,17.8c16.3,0,21-3.8,21-12.1H201c0,22.9-12.3,36.5-47.3,36.5
		c-33.1,0-48.5-14-48.5-46.4v-17c0-31.8,16.5-47.7,49.4-47.7c30.9,0,46.4,15.1,46.4,45.4C201,92.6,200.1,99,198.6,104.3z
		 M132.9,81.8h41.8v-2.3c0-10.4-7-15.7-21-15.7c-13.8,0-20.8,5.3-20.8,15.7V81.8z"/>
	<path class="st1" d="M222,148.4V0h27.6v148.4H222z"/>
	<path class="st1" d="M45.9,292.1c0,17.5,6.9,22.7,28.4,22.7c18,0,24.4-3.7,24.4-15.3c0-3.5-1.2-6.4-3.9-8.6
		c-2.7-2.2-8.9-6.2-18.3-11.6l-31.6-18.5c-18.5-10.9-27.4-23-27.4-41.5c0-27.6,17.3-41.5,57.5-41.5c40.2,0,55,15.3,55,49.9H98.5
		c0-15.1-6.9-21-23.4-21c-16.8,0-23.4,3.5-23.4,13.6c0,5.7,3.2,7.7,16,15.3l32.8,19.2c14.8,8.9,22.5,14.6,28.1,25.4
		c2.7,5.7,4.2,12.1,4.2,19.3c0,28.9-17.3,44.2-58.5,44.2c-40,0-60-17.3-60-51.6H45.9z"/>
	<path class="st1" d="M185.8,217.3v76.5c0,13.8,4.7,19.5,24.2,19.5c19,0,23.7-5.7,23.7-19.5v-76.5h32.1v76.5
		c0,33.6-17.3,49.9-55.8,49.9c-37.3,0-56.3-17.3-56.3-49.9v-76.5H185.8z"/>
	<path class="st1" d="M322.3,340.7H290v-81.4c0-29.4,17.8-44.9,51.3-44.9c5.2,0,10.4,0.7,15.3,2v30.4c-4.7-1.2-9.6-2-15.3-2
		c-15.1,0-19,4.9-19,17V340.7z"/>
	<path class="st1" d="M480.5,289.4H404v5.2c0,14.8,7.2,20.7,24.2,20.7c19,0,24.4-4.4,24.4-14.1h30.6c0,26.7-14.3,42.5-55,42.5
		c-38.5,0-56.5-16.3-56.5-54.1v-19.7c0-37,19.3-55.5,57.5-55.5c36,0,54.1,17.5,54.1,52.8C483.2,275.8,482.3,283.2,480.5,289.4z
		 M404,263.2h48.6v-2.7c0-12.1-8.1-18.3-24.4-18.3c-16,0-24.2,6.2-24.2,18.3V263.2z"/>
	<path class="st0" d="M289.6,42.4h34.3l-35.4,43c-2.8,3-4,5.3-4,7c0,1.5,1.3,3.8,3.8,6.8l38.9,50.5h-34.3L265,112.4
		c-5.5-6.8-8.3-13.8-8.3-20.8c0-7,2.1-11.2,8.3-18.9L289.6,42.4z"/>
</g>
</svg>
